<?xml version="1.0" encoding="UTF-8"?>
<svg width="128" height="128" version="1.1" viewBox="0 0 128 128" xmlns="http://www.w3.org/2000/svg">
  <defs>
    <linearGradient id="grad1" x1="0%" y1="0%" x2="100%" y2="100%">
      <stop offset="0%" style="stop-color:#3584e4;stop-opacity:1" />
      <stop offset="100%" style="stop-color:#1c71d8;stop-opacity:1" />
    </linearGradient>
  </defs>
  
  <!-- Background rounded rectangle -->
  <rect x="8" y="8" width="112" height="112" rx="16" ry="16" fill="url(#grad1)"/>
  
  <!-- Image frame -->
  <rect x="24" y="24" width="80" height="64" rx="4" ry="4" fill="#ffffff" opacity="0.9"/>
  
  <!-- Mountain icon (representing image) -->
  <path d="M 32 76 L 48 56 L 64 68 L 88 44 L 96 52 L 96 80 L 32 80 Z" fill="#3584e4" opacity="0.7"/>
  
  <!-- Sun icon -->
  <circle cx="78" cy="40" r="6" fill="#f6d32d" opacity="0.8"/>
  
  <!-- Optimization symbol (sparkle/star) -->
  <path d="M 96 96 L 100 104 L 108 108 L 100 112 L 96 120 L 92 112 L 84 108 L 92 104 Z" fill="#f6d32d"/>
  <path d="M 96 96 L 100 104 L 108 108 L 100 112 L 96 120 L 92 112 L 84 108 L 92 104 Z" fill="#ffffff" opacity="0.4" transform="rotate(45 96 108)"/>
</svg>
